<?xml version="1.0" encoding="UTF-8"?>
<svg width="136px" height="136px" viewBox="0 0 136 136" version="1.1" xmlns="http://www.w3.org/2000/svg" xmlns:xlink="http://www.w3.org/1999/xlink">
    <!-- Generator: Sketch 53 (72520) - https://sketchapp.com -->
    <title>Group 16</title>
    <desc>Created with Sketch.</desc>
    <g id="Page-1" stroke="none" stroke-width="1" fill="none" fill-rule="evenodd">
        <g id="Group-16" transform="translate(0.255208, 0.230208)">
            <circle id="Oval-Copy-13" fill="#FFFFFF" cx="67.5885417" cy="67.5885417" r="67.5885417"></circle>
            <g id="noun_group_683124" transform="translate(32.015625, 33.438542)" fill="#7875EB" fill-rule="nonzero">
                <path d="M23.6133021,54.3909896 C23.227517,55.0110803 22.6106318,55.4519706 21.899031,55.6161862 C21.1874301,55.7804018 20.4397274,55.6544163 19.8212292,55.2660833 C13.2109765,51.1236668 8.47257305,44.5710442 6.60944792,36.9958333 C6.33020034,35.5492696 7.23914389,34.1392101 8.67194064,33.7962534 C10.1047374,33.4532967 11.5536201,34.298983 11.9596146,35.7152083 C13.4904272,41.8925598 17.3666564,47.2309874 22.7666667,50.5989167 C24.044722,51.4143035 24.4231858,53.10944 23.6133021,54.3909896 Z M25.0362187,8.10351042 C31.6987679,4.90364165 39.45418,4.90364165 46.1167292,8.10351042 C47.0063577,8.53053215 48.0562218,8.45050532 48.8708477,7.89357525 C49.6854736,7.33664519 50.1411004,6.38742282 50.0660977,5.40347104 C49.9910951,4.41951926 49.3968577,3.55032376 48.5072292,3.12330208 C40.3343659,-0.805506284 30.818582,-0.805506284 22.6457187,3.12330208 C21.7560902,3.55032377 21.1618529,4.41951926 21.0868502,5.40347104 C21.0118476,6.38742281 21.4674743,7.33664517 22.2821002,7.89357523 C23.0967262,8.4505053 24.1465902,8.53053214 25.0362187,8.10351042 L25.0362187,8.10351042 Z M47.6107917,54.3909896 C47.9965767,55.0110803 48.6134619,55.4519706 49.3250628,55.6161862 C50.0366637,55.7804018 50.7843664,55.6544163 51.4028646,55.2660833 C58.0131172,51.1236668 62.7515207,44.5710442 64.6146458,36.9958333 C64.9080411,35.5439737 64.0002439,34.120175 62.5601624,33.7735597 C61.1200808,33.4269443 59.6638453,34.2817404 59.2644792,35.7080937 C57.7540147,41.9017616 53.8870488,47.2619123 48.4858854,50.6487187 C47.2278461,51.4525911 46.8396653,53.1126165 47.6107917,54.3909896 L47.6107917,54.3909896 Z M59.7055833,15.2607813 C63.1672754,15.2607813 65.9735312,12.4545254 65.9735312,8.99283333 C65.9735312,5.53114129 63.1672754,2.72488542 59.7055833,2.72488542 C56.2438913,2.72488542 53.4376354,5.53114129 53.4376354,8.99283333 C53.4300707,10.6570886 54.0839474,12.2561835 55.2554166,13.4383266 C56.4268858,14.6204698 58.0199842,15.2888236 59.6842396,15.2963542 L59.7055833,15.2607813 Z M69.2675833,18.7326979 C68.2507681,17.5931468 66.7964362,16.9410265 65.2691875,16.9398229 L63.3197917,16.9398229 C63.1232076,16.9386368 62.9369739,17.0278191 62.8146562,17.1817188 L59.7625,21.0093646 C59.6557812,21.1445417 59.5561771,21.1374271 59.4494583,21.0093646 L56.4471042,17.2172917 C56.3247866,17.063392 56.1385528,16.9742097 55.9419688,16.9753958 L54.1206354,16.9753958 C51.2042848,16.9748904 48.8247625,19.3101131 48.7704687,22.2259583 L48.7704687,22.2259583 L48.7704687,27.746875 C48.7704687,28.6073864 49.4680511,29.3049687 50.3285625,29.3049687 L69.0541458,29.3049687 C69.9146573,29.3049687 70.6122396,28.6073864 70.6122396,27.746875 L70.6122396,22.2188437 L70.6122396,22.2188437 C70.585582,20.9412156 70.103702,19.7150708 69.2533542,18.7611563 L69.2675833,18.7326979 Z M11.4615937,15.2963542 C14.9232858,15.2963542 17.7295417,12.4900983 17.7295417,9.02840625 C17.7295417,5.5667142 14.9232858,2.76045833 11.4615937,2.76045833 C7.9999017,2.76045833 5.19364583,5.5667142 5.19364583,9.02840625 C5.19756659,12.488473 8.00152704,15.2924334 11.4615937,15.2963542 Z M20.8315,29.3191979 C21.2459748,29.3173226 21.6426209,29.1503811 21.9336923,28.8553043 C22.2247636,28.5602274 22.3862686,28.1613367 22.3824792,27.746875 L22.3824792,22.2188437 L22.3824792,22.2188437 C22.3281371,19.3002284 19.9443159,16.9638936 17.0251979,16.9682812 L15.111375,16.9682812 C14.914791,16.9670951 14.7285572,17.0562775 14.6062396,17.2101771 L11.5683125,21.00225 C11.4615938,21.1374271 11.3619896,21.1303125 11.2552708,21.00225 L8.22445833,17.2172917 C8.10214073,17.063392 7.91590695,16.9742097 7.71932292,16.9753958 L5.890875,16.9753958 C2.97723901,16.9748161 0.598826016,19.3057874 0.540708333,22.2188437 L0.540708333,22.2188437 L0.540708333,27.746875 C0.540708333,28.6073864 1.23829067,29.3049687 2.09880208,29.3049687 L20.8315,29.3191979 Z M35.6084896,54.0708333 C39.0701816,54.0708333 41.8764375,51.2645775 41.8764375,47.8028854 C41.8764375,44.3411934 39.0701816,41.5349375 35.6084896,41.5349375 C32.1467975,41.5349375 29.3405417,44.3411934 29.3405417,47.8028854 C29.3444624,51.2629521 32.1484229,54.0669126 35.6084896,54.0708333 Z M26.0464896,57.54275 C25.198181,58.4973548 24.7187855,59.7235982 24.6947188,61.0004375 L24.6947188,61.0004375 L24.6947188,66.5426979 C24.6947188,67.4032093 25.3923011,68.1007917 26.2528125,68.1007917 L44.9783958,68.1007917 C45.8389073,68.1007917 46.5364896,67.4032093 46.5364896,66.5426979 L46.5364896,61.0004375 L46.5364896,61.0004375 C46.4821475,58.0818221 44.0983263,55.7454873 41.1792083,55.749875 L39.2653854,55.749875 C39.0688014,55.7486888 38.8825676,55.8378712 38.76025,55.9917708 L35.7223229,59.7625 C35.6156042,59.8976771 35.516,59.8905625 35.4092813,59.7625 L32.3713542,55.9988854 C32.2490366,55.8449858 32.0628028,55.7558034 31.8662188,55.7569896 L30.0448854,55.7569896 C28.5187459,55.7563827 27.0645906,56.4058364 26.0464896,57.54275 Z" id="Shape"></path>
            </g>
        </g>
    </g>
</svg>